<svg version="1.1" id="Layer_1" xmlns="http://www.w3.org/2000/svg" xmlns:xlink="http://www.w3.org/1999/xlink" x="0px" y="0px"
	 width="100%" viewBox="0 0 1024 1024" enable-background="new 0 0 1024 1024" xml:space="preserve">
<path fill="#00b0c5" opacity="1.000000" stroke="none" 
	d="
M283.347900,896.640381 
	C260.648712,889.782104 241.322327,878.048035 223.862137,862.630676 
	C205.925201,846.792236 194.658539,827.126343 188.069580,804.537476 
	C185.554153,795.913818 184.396179,786.955078 184.085648,777.925293 
	C183.619644,764.374329 181.814041,751.244446 175.196259,738.944946 
	C171.279831,731.666077 168.829376,723.587402 165.881805,715.807007 
	C165.251816,714.144104 164.889816,712.151245 165.147720,710.421143 
	C166.117447,703.916565 165.913742,697.500488 164.666931,691.064453 
	C164.456619,689.978821 164.710205,688.730347 165.012939,687.629517 
	C168.569366,674.697205 171.449036,661.676819 173.506073,648.368103 
	C174.610123,641.225098 177.223679,632.682556 181.913605,627.757202 
	C190.344971,618.902588 190.244965,608.833191 190.958771,598.402344 
	C191.163055,595.417175 190.911255,592.434937 192.335556,589.615479 
	C193.283218,587.739441 193.383102,585.547302 192.014389,583.901855 
	C187.442596,578.405762 189.064987,572.698608 191.083618,566.903076 
	C195.756332,553.487671 202.022919,540.967102 209.923126,529.064026 
	C213.512817,523.655457 217.223373,517.970642 219.534851,511.699097 
	C220.408768,509.327972 221.527756,507.968048 224.342896,509.347137 
	C226.862762,510.581573 228.538116,509.093170 229.501190,506.900238 
	C232.507492,500.054688 235.646088,493.251282 238.250427,486.251831 
	C239.583145,482.670013 239.794525,478.643433 237.649567,475.109772 
	C234.969086,470.693939 236.144135,466.551483 238.867325,463.007904 
	C242.233063,458.628235 245.346161,454.060242 247.964737,449.285278 
	C251.452133,442.925995 256.511963,438.259125 262.066620,434.019440 
	C271.571442,426.764648 276.384460,417.860382 274.367279,405.482056 
	C272.201447,392.191742 276.728973,379.408844 278.410858,366.412140 
	C278.666809,364.433899 279.191284,362.410614 278.998596,360.466949 
	C277.705017,347.420166 283.523468,336.064484 287.555603,324.319885 
	C289.080688,319.877777 293.687927,317.876556 296.966583,314.889191 
	C305.451416,307.158295 314.427429,299.916382 322.879181,292.223541 
	C328.623688,286.994873 332.991119,283.270172 340.770355,286.681091 
	C342.726074,287.538605 345.232605,286.850098 346.865936,285.280518 
	C349.554352,282.697052 352.061676,283.096497 354.959473,284.847260 
	C357.793579,286.559509 360.951202,286.807007 364.118530,285.746185 
	C370.663116,283.554199 376.358154,279.960785 381.255432,275.771210 
	C381.398987,274.205658 380.861786,273.459229 380.139618,273.112671 
	C371.419495,268.927948 365.011261,261.163849 355.790588,257.668365 
	C350.583466,255.694366 350.218323,248.287323 354.956879,245.126831 
	C356.594604,244.034515 358.598022,243.506287 360.375458,242.604233 
	C363.539154,240.998657 364.665924,238.133026 363.468048,235.073242 
	C362.274872,232.025513 359.610138,233.539963 357.415222,234.213211 
	C351.308777,236.086319 344.929138,236.120987 338.663727,236.907883 
	C337.240601,237.086609 335.426117,237.267670 334.744629,235.518219 
	C334.130005,233.940323 335.256348,232.670609 336.179565,231.482254 
	C340.463684,225.967545 344.647064,220.369507 349.082672,214.979156 
	C352.512421,210.811172 356.362488,207.768799 362.443848,210.413986 
	C366.425079,212.145721 369.992462,210.031021 372.932312,207.415726 
	C377.488312,203.362656 380.586945,198.400894 382.435699,192.457672 
	C386.380890,179.775253 394.022430,174.655533 407.427094,173.826920 
	C418.083710,173.168198 428.651825,173.215637 439.319519,173.696503 
	C449.466766,174.153915 459.314850,170.502533 469.401184,169.248367 
	C475.472931,168.493378 481.662354,168.137482 487.603424,166.276459 
	C492.168365,164.846481 496.392456,167.312637 500.779022,167.966064 
	C520.919373,170.966324 540.848694,169.709808 560.799866,165.815750 
	C584.500671,161.189865 607.173340,165.311249 628.905457,175.427719 
	C631.511108,176.640640 633.810120,178.211487 635.812866,180.274857 
	C639.294556,183.861893 642.979919,187.261902 646.315796,190.977402 
	C651.854553,197.146347 658.352356,200.967712 666.742798,202.405960 
	C675.206665,203.856812 682.341797,208.335098 688.925049,214.180618 
	C705.021362,228.472992 719.310181,244.468231 734.041565,260.069031 
	C738.021179,264.283417 743.068176,267.449493 748.271790,270.125214 
	C754.633240,273.396271 761.066589,276.531647 767.521851,279.614716 
	C771.046753,281.298248 774.030457,283.661499 776.586182,286.525574 
	C785.895386,296.958008 795.340637,307.280273 804.331604,317.982605 
	C817.364258,333.495880 821.433167,351.624756 815.908630,370.851929 
	C811.368652,386.652283 809.821228,402.680054 810.293396,418.702271 
	C810.650391,430.817566 812.530273,443.173370 818.101013,454.572632 
	C823.155579,464.915405 826.846558,475.812134 828.170471,487.390717 
	C829.508301,499.090668 828.734985,510.726776 826.304993,522.133362 
	C824.301575,531.538025 824.596375,540.529419 829.258545,548.817078 
	C834.118469,557.456421 834.499451,567.341919 838.073425,576.297424 
	C842.632507,587.721191 848.634888,598.551819 851.857910,610.529846 
	C854.715393,621.149170 857.417664,631.737061 858.252319,642.793823 
	C858.965393,652.239990 861.535034,661.466309 862.330566,670.947754 
	C864.582947,697.793396 863.833313,724.409668 858.397156,750.934998 
	C853.578674,774.446716 847.050964,797.492859 840.917480,820.651978 
	C838.528503,829.672546 833.153320,836.648010 825.447937,842.063477 
	C818.121643,847.212463 811.899109,854.212952 802.916931,856.552002 
	C786.468567,860.835388 771.028503,868.078796 754.615662,872.493103 
	C746.910034,874.565491 739.559753,878.007690 734.135559,884.347351 
	C726.714844,893.020447 717.556396,897.977417 705.941284,898.280212 
	C701.956299,898.384094 698.114441,899.780029 694.296265,901.014648 
	C684.618958,904.143799 674.985229,904.102600 665.430237,900.386292 
	C657.646606,897.358948 649.494263,895.578491 641.471313,893.351624 
	C629.515076,890.033264 618.266052,893.541626 607.231934,897.209167 
	C595.791931,901.011536 584.414368,902.458923 572.347534,901.387085 
	C562.279358,900.492859 552.078186,900.845886 541.906250,901.673157 
	C530.763794,902.579468 519.468628,901.821228 508.619843,899.425232 
	C492.061523,895.768250 475.741852,895.307678 459.051636,898.214050 
	C447.430176,900.237732 435.600922,901.149658 423.749908,901.018494 
	C418.049530,900.955322 412.403168,901.607300 406.938721,903.089966 
	C396.434601,905.939880 385.713074,907.084045 374.918915,907.881958 
	C370.483704,908.209778 366.275696,907.045593 362.168488,905.754456 
	C350.318054,902.029053 338.491364,901.531433 326.183228,903.668884 
	C314.320953,905.728821 302.665314,903.052185 291.358215,899.148315 
	C288.841064,898.279358 286.274933,897.552246 283.347900,896.640381 
M665.172180,416.340515 
	C652.387939,405.138092 639.326172,394.277710 625.699829,384.104187 
	C596.758850,362.496704 566.580872,343.038757 532.266541,330.907166 
	C497.472900,318.606171 463.927612,320.194305 432.227783,340.500305 
	C430.323822,341.719879 427.988129,342.611511 427.594391,345.250458 
	C428.330658,347.070526 430.036072,347.559906 431.417328,348.434113 
	C439.061340,353.272247 443.142029,360.306488 443.171417,369.249664 
	C443.300201,408.403961 443.265594,447.558990 443.198822,486.713593 
	C443.183472,495.725800 439.188354,502.684479 431.515594,507.508270 
	C427.322052,510.144684 427.177826,512.060974 431.237915,514.843506 
	C447.137695,525.739990 464.789612,531.615967 484.003571,532.714783 
	C508.314697,534.105103 530.770203,527.079712 552.399963,516.958801 
	C583.959290,502.191742 612.480347,482.607666 639.685608,461.009003 
	C651.170227,451.891235 662.284424,442.345978 673.102661,432.441864 
	C676.639465,429.203857 676.874634,426.614136 673.073364,423.552032 
	C670.485168,421.467224 668.156067,419.060852 665.172180,416.340515 
M639.550720,744.209045 
	C632.662231,742.119629 626.161255,739.132507 619.928101,735.570984 
	C616.635254,733.689331 614.425110,734.337830 612.653198,737.746826 
	C610.427612,742.028687 607.820801,746.110535 605.518738,750.354736 
	C601.766724,757.272278 601.991455,758.815430 608.974670,762.615173 
	C631.752136,775.008972 655.863342,779.785034 681.184448,772.562256 
	C701.220215,766.847168 713.901428,753.449036 716.400269,732.326904 
	C718.520325,714.406677 711.982910,695.917542 693.661011,685.301514 
	C685.089294,680.334961 675.704346,677.380249 666.803833,673.260742 
	C660.158264,670.184937 653.409729,667.162170 648.210449,661.774231 
	C639.757935,653.015137 642.412476,639.811157 653.533020,634.966125 
	C660.681885,631.851440 668.193665,631.998657 675.624573,633.193176 
	C684.558838,634.629395 692.945190,637.937195 700.921570,642.181641 
	C704.465332,644.067261 706.785461,643.451538 708.445129,639.692749 
	C710.461670,635.125427 712.758606,630.682800 714.873474,626.157898 
	C717.679688,620.153809 717.269775,619.144897 711.626221,615.859436 
	C691.546265,604.169617 669.837524,601.539185 647.417603,605.452332 
	C613.218506,611.421509 597.975525,653.392944 619.756226,680.491821 
	C627.824341,690.529968 639.187073,695.368713 650.536316,700.211548 
	C659.411255,703.998535 668.703857,706.990723 676.061646,713.602234 
	C687.273865,723.677429 684.287720,738.986938 670.234680,744.335693 
	C660.237366,748.140869 650.313477,747.293457 639.550720,744.209045 
M322.996796,615.512207 
	C293.190063,637.387878 283.674194,667.635803 287.682465,702.989685 
	C290.075684,724.098755 299.171814,742.164124 315.623840,756.059509 
	C334.527863,772.025879 356.795471,777.171204 380.904602,775.470642 
	C394.017426,774.545654 406.222015,770.183838 417.822662,764.007751 
	C422.079681,761.741333 423.763031,759.280945 421.255798,754.504272 
	C418.319366,748.909851 415.997681,742.994446 413.358582,737.241577 
	C411.642700,733.501221 409.191742,732.297668 405.424011,734.838989 
	C403.226562,736.321228 400.826721,737.542969 398.416656,738.664246 
	C376.225861,748.989014 350.072479,745.056702 335.015808,728.882996 
	C321.111969,713.947632 318.579315,695.796204 321.780853,676.614502 
	C325.996918,651.354614 348.274658,632.744568 372.604034,633.819702 
	C383.288849,634.291870 393.073456,638.031128 402.046722,643.871277 
	C406.436554,646.728271 407.939362,646.393433 410.025909,641.619019 
	C412.893036,635.058655 415.466461,628.369934 418.167938,621.737061 
	C419.501526,618.462830 418.815521,616.091064 415.535156,614.254822 
	C410.856140,611.635681 406.000275,609.408997 400.946594,607.759094 
	C374.127106,599.002991 348.176056,600.024597 322.996796,615.512207 
M354.628662,496.117310 
	C356.595612,497.069641 358.627594,497.710876 360.853516,497.708710 
	C379.834595,497.690460 398.816681,497.804810 417.796326,497.637238 
	C425.620453,497.568176 429.699554,493.177826 429.709290,485.328583 
	C429.756622,447.199860 429.767273,409.070984 429.733032,370.942261 
	C429.725433,362.486908 425.573608,358.333191 417.207275,358.308990 
	C398.725769,358.255524 380.243927,358.248627 361.762451,358.299561 
	C353.425964,358.322571 349.171906,362.474579 349.156036,370.946014 
	C349.084503,409.074463 349.140503,447.203186 349.124268,485.331787 
	C349.122437,489.587006 350.366241,493.183441 354.628662,496.117310 
M537.350891,753.498901 
	C537.340576,758.164490 537.296082,762.830383 537.328552,767.495667 
	C537.369629,773.392761 538.296753,774.420471 544.320129,774.563965 
	C550.481812,774.710693 556.650574,774.682312 562.814209,774.591125 
	C568.745728,774.503418 569.817505,773.429138 569.835266,767.529968 
	C569.875916,754.033630 569.823242,740.536926 569.815430,727.040405 
	C569.793152,688.716614 569.779724,650.392822 569.749329,612.069031 
	C569.743652,604.889099 568.924377,604.080139 561.651245,604.038086 
	C556.486145,604.008179 551.320557,604.041565 546.155273,604.073059 
	C538.156738,604.121887 537.392212,604.919983 537.390137,613.034180 
	C537.378357,659.522583 537.363220,706.010925 537.350891,753.498901 
M491.764282,611.764771 
	C491.897888,607.911011 491.944977,604.121094 486.488312,604.121765 
	C479.328644,604.122681 472.168976,604.113159 465.009308,604.114685 
	C461.269958,604.115479 459.544495,606.185242 459.471924,609.735168 
	C459.410767,612.727905 459.562775,615.724243 459.559235,618.718933 
	C459.500366,668.504028 459.469849,718.289185 459.305084,768.073975 
	C459.289001,772.922974 461.466309,774.651672 465.931183,774.609253 
	C471.924988,774.552307 477.919922,774.624512 483.914185,774.597961 
	C491.184082,774.565735 491.810608,773.928650 491.808899,766.561157 
	C491.796997,715.275146 491.775970,663.989136 491.764282,611.764771 
M648.506409,284.219879 
	C656.224731,287.964264 669.087769,283.324280 675.402161,274.281647 
	C670.437378,269.740021 664.547974,266.877228 658.134949,265.042755 
	C651.993774,263.286041 647.218567,265.169342 644.555725,270.147430 
	C641.973877,274.974152 643.016602,279.263245 648.506409,284.219879 
M496.293396,272.083954 
	C491.716278,268.664490 486.649017,266.265259 481.134949,264.792267 
	C476.080719,263.442169 471.954681,264.804993 468.885101,269.068329 
	C466.198120,272.800201 465.928467,276.644348 468.418884,280.641357 
	C470.886536,284.601868 475.589508,286.744568 480.471863,285.730804 
	C486.629852,284.452179 491.777740,281.095306 496.702026,277.372650 
	C498.725220,275.843170 498.914368,274.182800 496.293396,272.083954 
M588.489197,290.977509 
	C586.156006,290.130768 583.854065,289.182220 581.483765,288.456726 
	C574.780090,286.404968 568.711121,289.822296 566.952576,296.551361 
	C565.581421,301.797974 569.490417,307.293152 575.665466,308.971222 
	C581.635864,310.593658 586.284363,307.385529 590.999451,304.739471 
	C593.824219,303.154297 597.986938,301.716095 598.044617,298.339081 
	C598.104919,294.810364 593.630859,293.963440 590.955688,292.168640 
	C590.410461,291.802826 589.772949,291.574554 588.489197,290.977509 
M644.775696,562.544067 
	C647.501831,567.175293 651.727112,568.528503 656.744263,567.781250 
	C663.231628,566.815002 668.484192,563.311768 673.295593,559.125916 
	C675.683411,557.048523 674.355164,555.361938 672.311707,553.934753 
	C667.632629,550.666870 662.665894,548.157776 656.986755,546.978577 
	C652.366821,546.019409 648.787964,547.420349 645.838379,550.782288 
	C642.916870,554.112366 642.416138,557.867004 644.775696,562.544067 
M350.242645,552.956787 
	C347.487579,561.875244 352.387756,568.295288 361.574890,567.857361 
	C367.720001,567.564453 372.543335,564.239258 377.274353,560.884521 
	C380.973419,558.261597 380.848663,555.672607 377.006531,553.040039 
	C372.876190,550.209961 368.346069,548.205994 363.396454,547.119202 
	C357.873993,545.906616 353.630463,547.516296 350.242645,552.956787 
M478.532776,591.688110 
	C484.713928,591.114746 489.919525,588.250244 494.639404,584.499207 
	C498.010315,581.820312 497.779724,579.082092 494.218750,576.394409 
	C490.864716,573.862915 486.986603,572.358826 483.027069,571.093628 
	C475.844452,568.798462 469.235779,571.999756 467.546661,578.521973 
	C465.959747,584.649780 470.192322,590.116455 478.532776,591.688110 
M571.930969,589.705566 
	C578.556702,592.995850 591.979065,589.365540 596.049255,583.118958 
	C597.724121,580.548584 596.967712,578.366394 594.581299,576.681763 
	C591.030945,574.175537 587.204529,572.240417 582.997559,571.047241 
	C576.726929,569.268738 571.897949,570.716125 568.984436,575.363586 
	C566.116577,579.938477 566.789429,583.897278 571.930969,589.705566 
z"/>
<path fill="#000000" opacity="1.000000" stroke="none" 
	d="
M600.296997,393.729706 
	C575.587341,376.853088 550.348206,361.754791 522.074341,352.380280 
	C511.893341,349.004639 501.406067,347.328735 490.776428,346.358459 
	C485.740051,345.898712 482.887726,343.567780 482.942139,339.821289 
	C483.002869,335.643433 486.516113,333.019562 491.832001,333.200623 
	C508.548950,333.769989 524.300720,338.458130 539.654236,344.648621 
	C570.018127,356.891296 597.204895,374.556763 623.257385,394.099365 
	C627.162415,397.028656 627.818787,401.001312 625.394592,404.049805 
	C622.995667,407.066528 619.133362,407.271637 615.173584,404.466431 
	C610.281494,401.000732 605.448853,397.451019 600.296997,393.729706 
z"/>
<path fill="#000000" opacity="1.000000" stroke="none" 
	d="
M461.950500,350.355713 
	C457.687317,350.629181 454.939453,349.154968 454.351379,345.178192 
	C453.735016,341.009949 456.127228,338.726074 459.906494,337.618439 
	C461.332458,337.200500 462.734406,336.661072 464.186615,336.379913 
	C467.993286,335.642853 470.796722,337.114532 471.932220,340.803528 
	C473.146332,344.747833 471.464600,347.620605 467.670868,349.077087 
	C465.993317,349.721161 464.149261,349.931580 461.950500,350.355713 
z"/>
<path fill="#000000" opacity="1.000000" stroke="none" 
	d="
M375.285919,457.725494 
	C378.979004,461.820770 382.516266,465.579742 385.858704,469.504639 
	C388.602692,472.726685 390.922791,472.440002 393.559448,469.356445 
	C397.883820,464.299225 402.319153,459.332520 406.830780,454.441162 
	C410.604218,450.350098 414.137909,449.766296 417.200775,452.451141 
	C420.358032,455.218689 420.195190,459.185699 416.505768,463.387756 
	C410.908875,469.762360 405.284180,476.117706 399.499573,482.321106 
	C392.925629,489.370880 386.248260,489.494476 379.753906,482.584656 
	C373.716614,476.161194 367.907593,469.519043 362.115509,462.870819 
	C358.901581,459.181915 358.814575,455.245819 361.570587,452.638977 
	C364.561096,449.810394 368.298065,450.345276 372.000183,454.158356 
	C373.042999,455.232422 374.032104,456.358673 375.285919,457.725494 
z"/>
<path fill="#000000" opacity="1.000000" stroke="none" 
	d="
M404.684875,379.339233 
	C408.900238,384.090302 412.972565,388.498718 416.854736,393.068634 
	C420.063995,396.846497 420.113617,400.657166 417.290436,403.289368 
	C414.257629,406.117065 410.912628,405.820496 407.274841,402.016663 
	C402.554382,397.080719 397.844055,392.111603 393.484436,386.861908 
	C390.338593,383.073883 387.983215,383.731689 385.145874,387.041809 
	C380.809143,392.101105 376.359100,397.068878 371.814758,401.942749 
	C368.241028,405.775635 364.880493,406.208130 361.831787,403.563812 
	C358.911652,401.031067 358.759979,396.968567 361.911926,393.329620 
	C368.020172,386.277618 374.190765,379.267181 380.615631,372.505707 
	C385.871155,366.974884 392.792053,367.095398 398.354156,372.460693 
	C400.508636,374.538910 402.431305,376.857422 404.684875,379.339233 
z"/>
<path fill="#000000" opacity="1.000000" stroke="none" 
	d="
M399.208771,423.657623 
	C404.282623,424.925598 408.965668,426.074249 413.614105,427.349213 
	C417.703857,428.470886 419.955231,431.046783 419.073273,435.459290 
	C418.351685,439.069122 414.725372,441.078125 410.388641,440.028595 
	C395.355347,436.390320 380.344818,432.653473 365.367004,428.793457 
	C360.779175,427.611145 358.708221,424.116150 359.959625,420.203064 
	C361.380463,415.760254 364.984253,415.038025 368.840607,415.959717 
	C378.863647,418.355316 388.820007,421.029907 399.208771,423.657623 
z"/>
</svg>